# Alias OBJ Model File
# Exported from SketchUp, (c) 2000-2012 Trimble Navigation Limited
# File units = meters

mtllib Crystal.mtl

g Mesh1 cristal_2 cristales Model

usemtl _Metal_Seamed_1
v 0.151046 2.523 0.563867
vt -0.921749 5.51837
vn 0.876391 9.72723e-18 0.481601
v -0.528011 2.523 1.79958
vt -4.00574 5.51837
v -0.528011 0.243 1.79958
vt -4.00574 0.531496
v 0.151046 0.243 0.563867
vt -0.921749 0.531496
f 1/1/1 2/2/1 3/3/1 4/4/1 

g Mesh2 cristal_4 cristales Model

v -2.52995 2.525 2.61869
vt -2.09113 5.52275
vn -0.481601 1.074e-19 0.876391
v -3.36428 2.525 2.16021
vt -4.17337 5.52275
v -3.36428 0.243 2.16021
vt -4.17337 0.531496
v -2.52995 0.243 2.61869
vt -2.09113 0.531496
f 5/5/2 6/6/2 7/7/2 8/8/2 

g Mesh3 cristal_3 cristales Model

v -1.46076 2.525 3.20624
vt 0.577284 5.52275
v -2.29508 2.525 2.74776
vt -1.50496 5.52275
v -2.29508 0.243 2.74776
vt -1.50496 0.531496
v -1.46076 0.243 3.20624
vt 0.577284 0.531496
f 9/9/2 10/10/2 11/11/2 12/12/2 

g Mesh4 cristal_1 cristales Model

v -0.556907 2.523 1.85216
vt -4.13697 5.51837
vn 0.876391 1.70763e-17 0.481601
v -1.23596 2.523 3.08787
vt -7.22096 5.51837
v -1.23596 0.243 3.08787
vt -7.22096 0.531496
v -0.556907 0.243 1.85216
vt -4.13697 0.531496
f 13/13/3 14/14/3 15/15/3 16/16/3 

g Mesh5 cristal_5 cristales Model

v 2.53208 2.525 -3.76901
vt 9.8919 5.52275
vn 0.876391 -1.88405e-19 0.481601
v 2.02544 2.525 -2.84705
vt 7.59094 5.52275
v 2.02544 1.143 -2.84705
vt 7.59094 2.5
v 2.53208 1.143 -3.76901
vt 9.8919 2.5
f 17/17/4 18/18/4 19/19/4 20/20/4 

g Mesh6 cristal_6 cristales Model

v 2.82104 2.525 -4.29484
vt 11.2042 5.52275
v 2.66211 2.525 -4.00563
vt 10.4825 5.52275
v 2.66211 1.143 -4.00563
vt 10.4825 2.5
v 2.82104 1.143 -4.29484
vt 11.2042 2.5
f 21/21/4 22/22/4 23/23/4 24/24/4 

